<svg width="32" height="32" viewBox="0 0 32 32" fill="none" xmlns="http://www.w3.org/2000/svg">
<path d="M16 21.3333C18.2092 21.3333 20 19.5425 20 17.3333C20 15.1242 18.2092 13.3333 16 13.3333C13.7909 13.3333 12 15.1242 12 17.3333C12 19.5425 13.7909 21.3333 16 21.3333Z" fill="currentColor"></path>
<path d="M26.6667 6.66667H22.44L20.7867 4.86667C20.2934 4.32 19.5734 4 18.8267 4H13.1734C12.4267 4 11.7067 4.32 11.2 4.86667L9.56002 6.66667H5.33335C3.86669 6.66667 2.66669 7.86667 2.66669 9.33333V25.3333C2.66669 26.8 3.86669 28 5.33335 28H26.6667C28.1334 28 29.3334 26.8 29.3334 25.3333V9.33333C29.3334 7.86667 28.1334 6.66667 26.6667 6.66667ZM16 24C12.32 24 9.33335 21.0133 9.33335 17.3333C9.33335 13.6533 12.32 10.6667 16 10.6667C19.68 10.6667 22.6667 13.6533 22.6667 17.3333C22.6667 21.0133 19.68 24 16 24Z" fill="currentColor"></path>
</svg>
