<svg width="64" height="64" viewBox="0 0 32 32" fill="none" xmlns="http://www.w3.org/2000/svg">
<path d="M28 8H3.99998C2.53331 8 1.33331 9.2 1.33331 10.6667V21.3333C1.33331 22.8 2.53331 24 3.99998 24H28C29.4666 24 30.6666 22.8 30.6666 21.3333V10.6667C30.6666 9.2 29.4666 8 28 8ZM26.6666 21.3333H5.33331C4.59998 21.3333 3.99998 20.7333 3.99998 20V12C3.99998 11.2667 4.59998 10.6667 5.33331 10.6667H6.66665V14.6667C6.66665 15.4 7.26665 16 7.99998 16C8.73331 16 9.33331 15.4 9.33331 14.6667V10.6667H12V14.6667C12 15.4 12.6 16 13.3333 16C14.0666 16 14.6666 15.4 14.6666 14.6667V10.6667H17.3333V14.6667C17.3333 15.4 17.9333 16 18.6666 16C19.4 16 20 15.4 20 14.6667V10.6667H22.6666V14.6667C22.6666 15.4 23.2666 16 24 16C24.7333 16 25.3333 15.4 25.3333 14.6667V10.6667H26.6666C27.4 10.6667 28 11.2667 28 12V20C28 20.7333 27.4 21.3333 26.6666 21.3333Z" fill="currentColor"></path>
</svg>
