<svg width="32" height="32" viewBox="0 0 64 64" fill="none" xmlns="http://www.w3.org/2000/svg">
<path d="M21.3334 1.33337H10.6667C8.45335 1.33337 6.66669 3.12004 6.66669 5.33337V26.6667C6.66669 28.88 8.45335 30.6667 10.6667 30.6667H21.3334C23.5467 30.6667 25.3334 28.88 25.3334 26.6667V5.33337C25.3334 3.12004 23.5467 1.33337 21.3334 1.33337ZM18 28H14C13.6267 28 13.3334 27.7067 13.3334 27.3334C13.3334 26.96 13.6267 26.6667 14 26.6667H18C18.3734 26.6667 18.6667 26.96 18.6667 27.3334C18.6667 27.7067 18.3734 28 18 28ZM22.6667 24H9.33335V5.33337H22.6667V24Z" fill="currentColor"></path>
</svg>
