<svg width="64" height="64" viewBox="0 0 32 32" fill="none" xmlns="http://www.w3.org/2000/svg">
<path d="M18.6667 12H13.3333C12.6 12 12 11.4 12 10.6667C12 9.93335 12.6 9.33335 13.3333 9.33335H18.6667C19.4 9.33335 20 9.93335 20 10.6667C20 11.4 19.4 12 18.6667 12Z" fill="currentColor"></path>
<path d="M18.6667 16H13.3333C12.6 16 12 15.4 12 14.6667C12 13.9334 12.6 13.3334 13.3333 13.3334H18.6667C19.4 13.3334 20 13.9334 20 14.6667C20 15.4 19.4 16 18.6667 16Z" fill="currentColor"></path>
<path d="M26 4.66669L24 2.66669L22 4.66669L20 2.66669L18 4.66669L16 2.66669L14 4.66669L12 2.66669L10 4.66669L8 2.66669V21.3334H5.33333C4.6 21.3334 4 21.9334 4 22.6667V25.3334C4 27.5467 5.78667 29.3334 8 29.3334H24C26.2133 29.3334 28 27.5467 28 25.3334V2.66669L26 4.66669ZM20 26.6667H8C7.26667 26.6667 6.66667 26.0667 6.66667 25.3334V24H20V26.6667ZM25.3333 25.3334C25.3333 26.0667 24.7333 26.6667 24 26.6667C23.2667 26.6667 22.6667 26.0667 22.6667 25.3334V22.6667C22.6667 21.9334 22.0667 21.3334 21.3333 21.3334H10.6667V6.66669H25.3333V25.3334Z" fill="currentColor"></path>
<path d="M22.6667 12C23.403 12 24 11.4031 24 10.6667C24 9.93031 23.403 9.33335 22.6667 9.33335C21.9303 9.33335 21.3333 9.93031 21.3333 10.6667C21.3333 11.4031 21.9303 12 22.6667 12Z" fill="currentColor"></path>
<path d="M22.6667 16C23.403 16 24 15.4031 24 14.6667C24 13.9303 23.403 13.3334 22.6667 13.3334C21.9303 13.3334 21.3333 13.9303 21.3333 14.6667C21.3333 15.4031 21.9303 16 22.6667 16Z" fill="currentColor"></path>
</svg>
