<svg width="64" height="64" viewBox="0 0 32 32" fill="none" xmlns="http://www.w3.org/2000/svg">
<path d="M5.33333 9.33337C5.33333 8.60004 5.93333 8.00004 6.66667 8.00004H28C28.7333 8.00004 29.3333 7.40004 29.3333 6.66671C29.3333 5.93337 28.7333 5.33337 28 5.33337H5.33333C3.86667 5.33337 2.66667 6.53337 2.66667 8.00004V22.6667H2C0.893333 22.6667 0 23.56 0 24.6667C0 25.7734 0.893333 26.6667 2 26.6667H16.6667C17.7733 26.6667 18.6667 25.7734 18.6667 24.6667C18.6667 23.56 17.7733 22.6667 16.6667 22.6667H5.33333V9.33337ZM30.6667 10.6667H22.6667C21.9333 10.6667 21.3333 11.2667 21.3333 12V25.3334C21.3333 26.0667 21.9333 26.6667 22.6667 26.6667H30.6667C31.4 26.6667 32 26.0667 32 25.3334V12C32 11.2667 31.4 10.6667 30.6667 10.6667ZM29.3333 22.6667H24V13.3334H29.3333V22.6667Z" fill="currentColor"></path>
</svg>
